<?xml version="1.0" encoding="UTF-8"?>
<svg id="Layer_1" xmlns="http://www.w3.org/2000/svg" version="1.1" viewBox="0 0 110 134.5">
  <!-- Generator: Adobe Illustrator 30.3.0, SVG Export Plug-In . SVG Version: 2.1.3 Build 182)  -->
  <path d="M29.7,126C13.4,126,.2,112.7.2,96.5V16.1h22.3V7.3h11.4v30.2h-11.4v-10.1h-11v69.1c0,10,8.1,18.2,18.2,18.2h68.3V28.3h-15.1v9.1h-11.4v-9.1h-23.1v-11.4h23.1V7.3h11.4v9.6h26.6v109.1H29.7Z"/>
  <path d="M23.1,72.5v-29.4h30v29.4h-30ZM41.7,61.1v-6.6h-7.2v6.6h7.2Z"/>
  <path d="M56.4,102.9v-29.4h30v29.4h-30ZM75,91.7v-6.6h-7.2v6.6h7.2Z"/>
</svg>