<?xml version="1.0" encoding="UTF-8"?>
<svg id="Layer_1" xmlns="http://www.w3.org/2000/svg" version="1.1" viewBox="0 0 110 134.5">
  <!-- Generator: Adobe Illustrator 30.3.0, SVG Export Plug-In . SVG Version: 2.1.3 Build 182)  -->
  <path d="M54.2,74.9c-14.5,0-26.3-11.8-26.3-26.4s11.8-26.4,26.3-26.4,26.3,11.8,26.3,26.4-11.8,26.4-26.3,26.4ZM54.2,34.6c-7.6,0-13.8,6.2-13.8,13.9s6.2,13.9,13.8,13.9,13.8-6.2,13.8-13.9-6.2-13.9-13.8-13.9Z"/>
  <path d="M48.4,125l1-1.2c36.7-42.7,44-59,44-71.5,0-21.7-17.6-39.4-39.3-39.4S15,30.6,15,52.4s8.9,30.2,25.7,51l1,1.2-9.7,7.8-1-1.2C12.1,87.8,2.5,68.1,2.5,52.4,2.5,23.7,25.7.4,54.2.4s51.7,23.3,51.7,51.9-12.3,39.2-47,79.6l-1,1.2-9.5-8.1Z"/>
</svg>